<svg width="60" height="60" viewBox="0 0 60 60" fill="none" xmlns="http://www.w3.org/2000/svg">
<circle cx="30" cy="30" r="29.5" stroke="#313232"/>
<g clip-path="url(#clip0_92_2292)">
<path d="M29.993 25.3633C28.7672 25.3633 27.5916 25.8495 26.7248 26.715C25.8581 27.5804 25.3711 28.7542 25.3711 29.9781C25.3711 31.202 25.8581 32.3758 26.7248 33.2413C27.5916 34.1067 28.7672 34.5929 29.993 34.5929C31.2189 34.5929 32.3945 34.1067 33.2613 33.2413C34.128 32.3758 34.615 31.202 34.615 29.9781C34.615 28.7542 34.128 27.5804 33.2613 26.715C32.3945 25.8495 31.2189 25.3633 29.993 25.3633ZM29.993 32.9751C29.1967 32.9751 28.433 32.6593 27.8698 32.097C27.3067 31.5348 26.9904 30.7722 26.9904 29.9771C26.9904 29.182 27.3067 28.4194 27.8698 27.8572C28.433 27.295 29.1967 26.9791 29.993 26.9791C30.7894 26.9791 31.5531 27.295 32.1163 27.8572C32.6794 28.4194 32.9957 29.182 32.9957 29.9771C32.9957 30.7722 32.6794 31.5348 32.1163 32.097C31.5531 32.6593 30.7894 32.9751 29.993 32.9751Z" fill="black"/>
<path d="M34.7979 26.2695C35.393 26.2695 35.8755 25.7878 35.8755 25.1936C35.8755 24.5995 35.393 24.1178 34.7979 24.1178C34.2028 24.1178 33.7204 24.5995 33.7204 25.1936C33.7204 25.7878 34.2028 26.2695 34.7979 26.2695Z" fill="black"/>
<path d="M38.5232 24.0998C38.2918 23.5032 37.9382 22.9614 37.485 22.509C37.0318 22.0567 36.489 21.7039 35.8914 21.4731C35.192 21.2109 34.4532 21.0692 33.7064 21.0539C32.7438 21.012 32.4389 21 29.998 21C27.5571 21 27.2442 21 26.2896 21.0539C25.5434 21.0684 24.8051 21.2102 24.1066 21.4731C23.5088 21.7036 22.9659 22.0564 22.5127 22.5087C22.0594 22.9611 21.7059 23.503 21.4748 24.0998C21.2122 24.798 21.0706 25.5358 21.056 26.2814C21.013 27.2415 21 27.5459 21 29.984C21 32.4212 21 32.7315 21.056 33.6866C21.071 34.4331 21.2119 35.1697 21.4748 35.8693C21.7066 36.4658 22.0604 37.0076 22.5138 37.4599C22.9671 37.9121 23.5099 38.265 24.1076 38.496C24.8047 38.7687 25.5434 38.9205 26.2916 38.9451C27.2542 38.987 27.5591 39 30 39C32.4409 39 32.7538 39 33.7084 38.9451C34.4551 38.9299 35.1939 38.7886 35.8934 38.5269C36.4909 38.2956 37.0335 37.9424 37.4866 37.49C37.9398 37.0375 38.2935 36.4958 38.5252 35.8992C38.7881 35.2006 38.929 34.4641 38.944 33.7176C38.987 32.7575 39 32.4531 39 30.015C39 27.5768 39 27.2675 38.944 26.3124C38.9324 25.5562 38.79 24.8076 38.5232 24.0998ZM37.3058 33.6128C37.2993 34.1879 37.1942 34.7577 36.9949 35.2974C36.8448 35.6855 36.615 36.0379 36.3203 36.332C36.0255 36.6261 35.6724 36.8553 35.2837 37.005C34.7491 37.203 34.1845 37.308 33.6144 37.3154C32.6648 37.3593 32.3969 37.3703 29.962 37.3703C27.5251 37.3703 27.2762 37.3703 26.3086 37.3154C25.7388 37.3084 25.1745 37.2034 24.6404 37.005C24.2502 36.8563 23.8957 36.6274 23.5997 36.3333C23.3038 36.0391 23.0729 35.6862 22.9221 35.2974C22.7257 34.7635 22.6206 34.2004 22.6113 33.6317C22.5683 32.6836 22.5583 32.4162 22.5583 29.985C22.5583 27.5529 22.5583 27.3044 22.6113 26.3373C22.6177 25.7625 22.7229 25.193 22.9221 24.6537C23.227 23.8663 23.8517 23.2465 24.6404 22.9451C25.1747 22.7476 25.7389 22.6427 26.3086 22.6347C27.2592 22.5918 27.5261 22.5798 29.962 22.5798C32.3979 22.5798 32.6478 22.5798 33.6144 22.6347C34.1845 22.6416 34.7492 22.7466 35.2837 22.9451C35.6724 23.0951 36.0255 23.3246 36.3202 23.6188C36.6149 23.913 36.8447 24.2655 36.9949 24.6537C37.1914 25.1876 37.2964 25.7507 37.3058 26.3194C37.3487 27.2685 37.3597 27.5349 37.3597 29.9671C37.3597 32.3982 37.3597 32.6597 37.3167 33.6138L37.3058 33.6128Z" fill="black"/>
</g>
<defs>
<clipPath id="clip0_92_2292">
<rect width="24" height="24" fill="white" transform="translate(18 18)"/>
</clipPath>
</defs>
</svg>
