<svg width="60" height="60" viewBox="0 0 60 60" fill="none" xmlns="http://www.w3.org/2000/svg">
<circle cx="30" cy="30" r="29.5" stroke="#313232"/>
<g clip-path="url(#clip0_92_2319)">
<path d="M37.1507 26.6436C37.1626 26.8039 37.1626 26.9633 37.1626 27.1226C37.1626 32 33.4503 37.6202 26.666 37.6202C24.5758 37.6202 22.634 37.0148 21 35.9633C21.2968 35.9972 21.5825 36.0091 21.8912 36.0091C23.5518 36.0131 25.1654 35.4578 26.4718 34.4327C25.7019 34.4188 24.9555 34.1648 24.337 33.7061C23.7184 33.2475 23.2585 32.6072 23.0215 31.8745C23.2495 31.9084 23.4785 31.9313 23.7185 31.9313C24.0492 31.9313 24.3816 31.8855 24.6903 31.8058C23.8548 31.6371 23.1034 31.1842 22.5641 30.5241C22.0247 29.8641 21.7306 29.0375 21.7318 28.1851V28.1393C22.2237 28.4132 22.7943 28.5845 23.3988 28.6074C22.8924 28.2708 22.4772 27.8142 22.1901 27.2782C21.9031 26.7421 21.7532 26.1434 21.7538 25.5353C21.7538 24.8502 21.9361 24.2219 22.2558 23.6741C23.1828 24.8145 24.3391 25.7474 25.6496 26.4125C26.9602 27.0775 28.3958 27.4599 29.8635 27.5348C29.8067 27.26 29.7719 26.9752 29.7719 26.6894C29.7717 26.2048 29.867 25.725 30.0523 25.2772C30.2376 24.8295 30.5094 24.4227 30.852 24.0801C31.1946 23.7374 31.6014 23.4657 32.0492 23.2803C32.4969 23.095 32.9768 22.9998 33.4613 23C34.5238 23 35.4828 23.4451 36.1569 24.1651C36.9829 24.0053 37.775 23.7038 38.4981 23.2739C38.2227 24.1264 37.646 24.8494 36.8759 25.3072C37.6085 25.2237 38.3244 25.031 39 24.7357C38.4954 25.4713 37.8702 26.1163 37.1507 26.6436Z" fill="black"/>
</g>
<defs>
<clipPath id="clip0_92_2319">
<rect width="24" height="24" fill="white" transform="translate(18 18)"/>
</clipPath>
</defs>
</svg>
