<svg width="60" height="60" viewBox="0 0 60 60" fill="none" xmlns="http://www.w3.org/2000/svg">
<circle cx="30" cy="30" r="29.5" stroke="#313232"/>
<g clip-path="url(#clip0_92_2223)">
<path d="M29.2517 32.1643V25.3842H30.1524V28.8251V29.9385L31.2594 29.8194C32.4672 29.6894 33.5825 28.9634 34.4438 28.0563C35.1496 27.3131 35.7471 26.3852 36.141 25.3842H37.0126C36.3225 27.1774 34.9185 28.5162 33.8786 29.1174L32.2208 30.0759L33.9547 30.8886C35.0028 31.3799 36.6201 32.5644 37.5729 34.6159H36.4982C35.5829 32.501 33.7167 30.8524 31.2514 30.6071L30.1524 30.4977V31.6021V34.5984C27.6463 34.4612 25.7408 33.5247 24.4081 31.9781C23.0945 30.4537 22.2575 28.2432 22.0474 25.3842H23.1271C23.4899 30.1572 25.7705 32.5748 28.0092 33.1344L29.2517 33.4451V32.1643Z" stroke="#2C2C2C" stroke-width="2"/>
</g>
<defs>
<clipPath id="clip0_92_2223">
<rect width="24" height="24" fill="white" transform="translate(18 18)"/>
</clipPath>
</defs>
</svg>
