<svg width="60" height="60" viewBox="0 0 60 60" fill="none" xmlns="http://www.w3.org/2000/svg">
<circle cx="30" cy="30" r="29.5" stroke="#313232"/>
<g clip-path="url(#clip0_92_2324)">
<path d="M38.6338 25.9813C38.5314 25.6012 38.3312 25.2546 38.0532 24.976C37.7751 24.6973 37.429 24.4963 37.0491 24.393C35.6407 24.0063 30.0062 24 30.0062 24C30.0062 24 24.3726 23.9937 22.9633 24.3633C22.5837 24.4714 22.2383 24.6752 21.9601 24.9553C21.682 25.2353 21.4805 25.5821 21.375 25.9624C21.0036 27.3708 21 30.292 21 30.292C21 30.292 20.9964 33.2275 21.3651 34.6215C21.572 35.3922 22.1791 36.0011 22.9507 36.2089C24.3735 36.5956 29.9927 36.6019 29.9927 36.6019C29.9927 36.6019 35.6273 36.6082 37.0357 36.2394C37.4156 36.1363 37.7621 35.9358 38.0408 35.6577C38.3196 35.3796 38.5209 35.0336 38.6248 34.6539C38.9972 33.2464 38.9999 30.3261 38.9999 30.3261C38.9999 30.3261 39.0179 27.3897 38.6338 25.9813ZM28.2039 32.9981L28.2084 27.602L32.8914 30.3045L28.2039 32.9981Z" fill="black"/>
</g>
<defs>
<clipPath id="clip0_92_2324">
<rect width="24" height="24" fill="white" transform="translate(18 18)"/>
</clipPath>
</defs>
</svg>
